<?xml version="1.0" encoding="UTF-8" standalone="no"?>
<svg width="94px" height="25px" viewBox="0 0 94 25" version="1.1" xmlns="http://www.w3.org/2000/svg" xmlns:xlink="http://www.w3.org/1999/xlink" xmlns:sketch="http://www.bohemiancoding.com/sketch/ns">
    <!-- Generator: Sketch 3.4.4 (17249) - http://www.bohemiancoding.com/sketch -->
    <title>Group</title>
    <desc>Created with Sketch.</desc>
    <defs></defs>
    <g id="Page-1" stroke="none" stroke-width="1" fill="none" fill-rule="evenodd" sketch:type="MSPage">
        <g id="Group" sketch:type="MSLayerGroup">
            <rect id="Rectangle-1" fill="#5E5E5E" sketch:type="MSShapeGroup" x="24.7368421" y="0" width="69.2631579" height="25"></rect>
            <path d="M34.4263941,10.0913086 L33.1827417,15 L32.4180933,15 L31.2183863,11.2163086 L30.0274683,15 L29.2672144,15 L28.0103784,10.0913086 L28.8717066,10.0913086 L29.7374292,13.8925781 L30.90198,10.0913086 L31.5831324,10.0913086 L32.7784449,13.8925781 L33.5958277,10.0913086 L34.4263941,10.0913086 Z M37.2572339,15.1142578 C36.4750034,15.1142578 35.8678318,14.893801 35.4357007,14.4528809 C35.0035696,14.0119607 34.7875074,13.3857462 34.7875074,12.5742188 C34.7875074,11.7744101 34.9969779,11.1379418 35.4159253,10.6647949 C35.8348727,10.191648 36.3827188,9.95507812 37.05948,9.95507812 C37.364169,9.95507812 37.6336976,9.999023 37.8680738,10.0869141 C38.1024499,10.1748051 38.307526,10.3124991 38.4833081,10.5 C38.6590903,10.6875009 38.7938545,10.9167467 38.887605,11.1877441 C38.9813555,11.4587416 39.02823,11.7905254 39.02823,12.1831055 L39.02823,12.6313477 L35.6268628,12.6313477 C35.6268628,13.2026396 35.7704161,13.6391586 36.0575269,13.940918 C36.3446377,14.2426773 36.7416064,14.3935547 37.2484449,14.3935547 C37.4300864,14.3935547 37.6080631,14.3730471 37.7823804,14.3320312 C37.9566977,14.2910154 38.1141668,14.2382816 38.2547925,14.1738281 C38.4042073,14.106445 38.5301826,14.0412601 38.6327222,13.9782715 C38.7352618,13.9152829 38.8202219,13.8559573 38.887605,13.800293 L38.9359449,13.800293 L38.9359449,14.7011719 C38.8392647,14.739258 38.7191487,14.7868649 38.5755933,14.8439941 C38.4320379,14.9011233 38.3031329,14.9458006 38.1888745,14.9780273 C38.0277409,15.0219729 37.8819904,15.0556639 37.7516187,15.0791016 C37.6212469,15.1025392 37.4564537,15.1142578 37.2572339,15.1142578 L37.2572339,15.1142578 Z M38.2240308,11.9985352 C38.2181714,11.7758778 38.1918045,11.5839852 38.1449292,11.4228516 C38.098054,11.2617179 38.0306719,11.1254888 37.9427808,11.0141602 C37.8461006,10.8911127 37.7223226,10.7973636 37.5714429,10.7329102 C37.4205632,10.6684567 37.2337975,10.6362305 37.0111402,10.6362305 C36.7914125,10.6362305 36.6046468,10.6691891 36.4508374,10.7351074 C36.2970281,10.8010257 36.1571369,10.896972 36.0311597,11.0229492 C35.9081122,11.1518561 35.8143631,11.294677 35.7499097,11.451416 C35.6854563,11.6081551 35.644441,11.7905263 35.6268628,11.9985352 L38.2240308,11.9985352 Z M45.2172534,10.9790039 L45.1733081,10.9790039 C45.1117844,10.9614257 45.0465995,10.9504395 44.9777515,10.9460449 C44.9089035,10.9416504 44.8261407,10.9394531 44.7294605,10.9394531 C44.5068031,10.9394531 44.2856139,10.9877925 44.0658863,11.0844727 C43.8461586,11.1811528 43.6381529,11.3247061 43.4418628,11.5151367 L43.4418628,15 L42.6156909,15 L42.6156909,10.0913086 L43.4418628,10.0913086 L43.4418628,10.8208008 C43.7436221,10.5541979 44.006559,10.3659673 44.2306812,10.2561035 C44.4548034,10.1462397 44.6723305,10.0913086 44.8832691,10.0913086 C44.9682304,10.0913086 45.0319505,10.0935058 45.0744312,10.0979004 C45.1169119,10.1022949 45.1645188,10.1088867 45.2172534,10.1176758 L45.2172534,10.9790039 Z M47.9162574,15.1142578 C47.1340269,15.1142578 46.5268552,14.893801 46.0947242,14.4528809 C45.6625931,14.0119607 45.4465308,13.3857462 45.4465308,12.5742188 C45.4465308,11.7744101 45.6560014,11.1379418 46.0749488,10.6647949 C46.4938962,10.191648 47.0417423,9.95507812 47.7185035,9.95507812 C48.0231925,9.95507812 48.292721,9.999023 48.5270972,10.0869141 C48.7614734,10.1748051 48.9665494,10.3124991 49.1423316,10.5 C49.3181137,10.6875009 49.452878,10.9167467 49.5466285,11.1877441 C49.6403789,11.4587416 49.6872535,11.7905254 49.6872535,12.1831055 L49.6872535,12.6313477 L46.2858863,12.6313477 C46.2858863,13.2026396 46.4294395,13.6391586 46.7165503,13.940918 C47.0036611,14.2426773 47.4006298,14.3935547 47.9074683,14.3935547 C48.0891098,14.3935547 48.2670866,14.3730471 48.4414038,14.3320312 C48.6157211,14.2910154 48.7731902,14.2382816 48.913816,14.1738281 C49.0632308,14.106445 49.1892061,14.0412601 49.2917456,13.9782715 C49.3942852,13.9152829 49.4792453,13.8559573 49.5466285,13.800293 L49.5949683,13.800293 L49.5949683,14.7011719 C49.4982881,14.739258 49.3781721,14.7868649 49.2346167,14.8439941 C49.0910613,14.9011233 48.9621564,14.9458006 48.847898,14.9780273 C48.6867644,15.0219729 48.5410139,15.0556639 48.4106421,15.0791016 C48.2802704,15.1025392 48.1154771,15.1142578 47.9162574,15.1142578 L47.9162574,15.1142578 Z M48.8830542,11.9985352 C48.8771948,11.7758778 48.8508279,11.5839852 48.8039527,11.4228516 C48.7570774,11.2617179 48.6896953,11.1254888 48.6018042,11.0141602 C48.5051241,10.8911127 48.381346,10.7973636 48.2304663,10.7329102 C48.0795867,10.6684567 47.892821,10.6362305 47.6701636,10.6362305 C47.4504359,10.6362305 47.2636702,10.6691891 47.1098609,10.7351074 C46.9560515,10.8010257 46.8161603,10.896972 46.6901831,11.0229492 C46.5671356,11.1518561 46.4733866,11.294677 46.4089331,11.451416 C46.3444797,11.6081551 46.3034645,11.7905263 46.2858863,11.9985352 L48.8830542,11.9985352 Z M52.4433863,15.1098633 C52.1064705,15.1098633 51.7973916,15.0578618 51.5161402,14.9538574 C51.2348888,14.849853 50.993192,14.6923839 50.7910425,14.4814453 C50.5888931,14.2705068 50.4321564,14.0046403 50.3208277,13.6838379 C50.209499,13.3630355 50.1538355,12.985842 50.1538355,12.5522461 C50.1538355,12.1215799 50.2116962,11.7495133 50.3274195,11.4360352 C50.4431427,11.122557 50.5976822,10.8588878 50.7910425,10.6450195 C50.9844029,10.4311513 51.2253672,10.266358 51.5139429,10.1506348 C51.8025186,10.0349115 52.1123299,9.97705078 52.4433863,9.97705078 C52.7129189,9.97705078 52.972926,10.0151363 53.2234156,10.0913086 C53.4739051,10.1674808 53.6972915,10.2553706 53.8935816,10.3549805 L53.8935816,11.2822266 L53.8452417,11.2822266 C53.7866477,11.2324216 53.711209,11.1752933 53.6189234,11.1108398 C53.5266378,11.0463864 53.4145783,10.9804691 53.2827417,10.9130859 C53.1684833,10.8544919 53.0337191,10.8032229 52.8784449,10.7592773 C52.7231706,10.7153318 52.5737581,10.6933594 52.4302027,10.6933594 C52.0024662,10.6933594 51.6589637,10.855223 51.3996851,11.1789551 C51.1404065,11.5026872 51.0107691,11.9604463 51.0107691,12.5522461 C51.0107691,13.1323271 51.136012,13.5842269 51.3865015,13.907959 C51.636991,14.2316911 51.9848879,14.3935547 52.4302027,14.3935547 C52.6997353,14.3935547 52.9560804,14.3378912 53.1992456,14.2265625 C53.4424109,14.1152338 53.6577408,13.9716806 53.8452417,13.7958984 L53.8935816,13.7958984 L53.8935816,14.7231445 C53.8115499,14.7612307 53.7090119,14.8073728 53.5859644,14.8615723 C53.4629169,14.9157718 53.3515899,14.9560546 53.25198,14.9824219 C53.1113543,15.0234377 52.985379,15.0549315 52.8740503,15.0769043 C52.7627216,15.0988771 52.6191684,15.1098633 52.4433863,15.1098633 L52.4433863,15.1098633 Z M58.6536206,12.5478516 C58.6536206,13.3740276 58.4544039,14.0119606 58.0559644,14.4616699 C57.6575249,14.9113792 57.1272568,15.1362305 56.4651441,15.1362305 C55.7825235,15.1362305 55.2456636,14.9040551 54.8545484,14.4396973 C54.4634331,13.9753395 54.2678785,13.3447305 54.2678785,12.5478516 C54.2678785,11.727535 54.4692925,11.0903343 54.8721265,10.6362305 C55.2749605,10.1821266 55.8059611,9.95507812 56.4651441,9.95507812 C57.1272568,9.95507812 57.6575249,10.1813942 58.0559644,10.6340332 C58.4544039,11.0866722 58.6536206,11.7246053 58.6536206,12.5478516 L58.6536206,12.5478516 Z M57.8010816,12.5478516 C57.8010816,11.9121062 57.6853601,11.4396988 57.4539136,11.1306152 C57.2224671,10.8215317 56.8928806,10.6669922 56.4651441,10.6669922 C56.0344779,10.6669922 55.7026941,10.8215317 55.4697827,11.1306152 C55.2368714,11.4396988 55.1204175,11.9121062 55.1204175,12.5478516 C55.1204175,13.163089 55.2368714,13.6296371 55.4697827,13.9475098 C55.7026941,14.2653824 56.0344779,14.4243164 56.4651441,14.4243164 C56.8899509,14.4243164 57.218805,14.2683121 57.4517163,13.9562988 C57.6846277,13.6442855 57.8010816,13.1748078 57.8010816,12.5478516 L57.8010816,12.5478516 Z M65.0440308,15 L65.0440308,12.1611328 C65.0440308,11.9355457 65.0352418,11.7268076 65.0176636,11.5349121 C65.0000854,11.3430166 64.9634647,11.1928716 64.9078003,11.0844727 C64.8492063,10.9672846 64.765711,10.8808597 64.657312,10.8251953 C64.5489131,10.769531 64.4024302,10.7416992 64.2178589,10.7416992 C64.0479362,10.7416992 63.865565,10.7937007 63.6707398,10.8977051 C63.4759146,11.0017095 63.2745006,11.1518545 63.0664917,11.3481445 C63.0694214,11.3979495 63.0730835,11.457275 63.0774781,11.526123 C63.0818726,11.594971 63.0840699,11.6762691 63.0840699,11.7700195 L63.0840699,15 L62.257898,15 L62.257898,12.1611328 C62.257898,11.9355457 62.249109,11.7268076 62.2315308,11.5349121 C62.2139526,11.3430166 62.1773319,11.1928716 62.1216675,11.0844727 C62.0630735,10.9672846 61.9795782,10.8808597 61.8711792,10.8251953 C61.7627803,10.769531 61.6162973,10.7416992 61.4317261,10.7416992 C61.2530143,10.7416992 61.0655162,10.7973627 60.8692261,10.9086914 C60.6729361,11.0200201 60.4825083,11.1621085 60.297937,11.3349609 L60.297937,15 L59.4717652,15 L59.4717652,10.0913086 L60.297937,10.0913086 L60.297937,10.6362305 C60.514735,10.4194325 60.7293325,10.2517096 60.9417359,10.1330566 C61.1541393,10.0144037 61.3877795,9.95507812 61.6426636,9.95507812 C61.9327041,9.95507812 62.1897816,10.0209954 62.4139038,10.152832 C62.6380261,10.2846686 62.8086786,10.5014633 62.9258667,10.8032227 C63.1748914,10.524901 63.418053,10.3139656 63.6553589,10.1704102 C63.8926648,10.0268548 64.1504747,9.95507812 64.4287964,9.95507812 C64.639735,9.95507812 64.8316276,9.98803678 65.00448,10.0539551 C65.1773324,10.1198734 65.3282098,10.2260735 65.4571167,10.3725586 C65.5889533,10.5219734 65.690759,10.7080067 65.7625367,10.9306641 C65.8343144,11.1533214 65.8702027,11.4331038 65.8702027,11.7700195 L65.8702027,15 L65.0440308,15 Z M72.5726245,15 L72.5726245,12.1611328 C72.5726245,11.9355457 72.5638356,11.7268076 72.5462574,11.5349121 C72.5286791,11.3430166 72.4920584,11.1928716 72.4363941,11.0844727 C72.3778,10.9672846 72.2943048,10.8808597 72.1859058,10.8251953 C72.0775068,10.769531 71.9310239,10.7416992 71.7464527,10.7416992 C71.5765299,10.7416992 71.3941587,10.7937007 71.1993335,10.8977051 C71.0045083,11.0017095 70.8030943,11.1518545 70.5950855,11.3481445 C70.5980152,11.3979495 70.6016773,11.457275 70.6060718,11.526123 C70.6104664,11.594971 70.6126636,11.6762691 70.6126636,11.7700195 L70.6126636,15 L69.7864917,15 L69.7864917,12.1611328 C69.7864917,11.9355457 69.7777028,11.7268076 69.7601245,11.5349121 C69.7425463,11.3430166 69.7059256,11.1928716 69.6502613,11.0844727 C69.5916672,10.9672846 69.508172,10.8808597 69.399773,10.8251953 C69.291374,10.769531 69.1448911,10.7416992 68.9603199,10.7416992 C68.781608,10.7416992 68.5941099,10.7973627 68.3978199,10.9086914 C68.2015298,11.0200201 68.011102,11.1621085 67.8265308,11.3349609 L67.8265308,15 L67.0003589,15 L67.0003589,10.0913086 L67.8265308,10.0913086 L67.8265308,10.6362305 C68.0433288,10.4194325 68.2579262,10.2517096 68.4703296,10.1330566 C68.682733,10.0144037 68.9163733,9.95507812 69.1712574,9.95507812 C69.4612979,9.95507812 69.7183754,10.0209954 69.9424976,10.152832 C70.1666198,10.2846686 70.3372724,10.5014633 70.4544605,10.8032227 C70.7034852,10.524901 70.9466468,10.3139656 71.1839527,10.1704102 C71.4212585,10.0268548 71.6790685,9.95507812 71.9573902,9.95507812 C72.1683287,9.95507812 72.3602213,9.98803678 72.5330738,10.0539551 C72.7059262,10.1198734 72.8568036,10.2260735 72.9857105,10.3725586 C73.1175471,10.5219734 73.2193527,10.7080067 73.2911304,10.9306641 C73.3629081,11.1533214 73.3987964,11.4331038 73.3987964,11.7700195 L73.3987964,15 L72.5726245,15 Z M76.6603003,15.1142578 C75.8780699,15.1142578 75.2708982,14.893801 74.8387671,14.4528809 C74.4066361,14.0119607 74.1905738,13.3857462 74.1905738,12.5742188 C74.1905738,11.7744101 74.4000443,11.1379418 74.8189917,10.6647949 C75.2379391,10.191648 75.7857852,9.95507812 76.4625464,9.95507812 C76.7672354,9.95507812 77.036764,9.999023 77.2711402,10.0869141 C77.5055163,10.1748051 77.7105924,10.3124991 77.8863745,10.5 C78.0621567,10.6875009 78.196921,10.9167467 78.2906714,11.1877441 C78.3844219,11.4587416 78.4312964,11.7905254 78.4312964,12.1831055 L78.4312964,12.6313477 L75.0299292,12.6313477 C75.0299292,13.2026396 75.1734825,13.6391586 75.4605933,13.940918 C75.7477041,14.2426773 76.1446728,14.3935547 76.6515113,14.3935547 C76.8331528,14.3935547 77.0111295,14.3730471 77.1854468,14.3320312 C77.3597641,14.2910154 77.5172332,14.2382816 77.6578589,14.1738281 C77.8072737,14.106445 77.933249,14.0412601 78.0357886,13.9782715 C78.1383282,13.9152829 78.2232883,13.8559573 78.2906714,13.800293 L78.3390113,13.800293 L78.3390113,14.7011719 C78.2423311,14.739258 78.1222151,14.7868649 77.9786597,14.8439941 C77.8351043,14.9011233 77.7061993,14.9458006 77.591941,14.9780273 C77.4308073,15.0219729 77.2850568,15.0556639 77.1546851,15.0791016 C77.0243133,15.1025392 76.8595201,15.1142578 76.6603003,15.1142578 L76.6603003,15.1142578 Z M77.6270972,11.9985352 C77.6212378,11.7758778 77.5948709,11.5839852 77.5479956,11.4228516 C77.5011204,11.2617179 77.4337383,11.1254888 77.3458472,11.0141602 C77.249167,10.8911127 77.125389,10.7973636 76.9745093,10.7329102 C76.8236297,10.6684567 76.6368639,10.6362305 76.4142066,10.6362305 C76.1944789,10.6362305 76.0077132,10.6691891 75.8539038,10.7351074 C75.7000945,10.8010257 75.5602033,10.896972 75.4342261,11.0229492 C75.3111786,11.1518561 75.2174296,11.294677 75.1529761,11.451416 C75.0885227,11.6081551 75.0475074,11.7905263 75.0299292,11.9985352 L77.6270972,11.9985352 Z M83.0946558,15 L82.2684839,15 L82.2684839,12.2050781 C82.2684839,11.9794911 82.2574977,11.7692881 82.2355249,11.5744629 C82.2135522,11.3796377 82.1718045,11.2236334 82.1102808,11.1064453 C82.0428976,10.9833978 81.9491486,10.891846 81.8290308,10.8317871 C81.708913,10.7717282 81.5448522,10.7416992 81.3368433,10.7416992 C81.1317641,10.7416992 80.9200963,10.7966303 80.7018335,10.9064941 C80.4835707,11.016358 80.2704381,11.1591788 80.0624292,11.3349609 L80.0624292,15 L79.2362574,15 L79.2362574,10.0913086 L80.0624292,10.0913086 L80.0624292,10.6362305 C80.3085242,10.4165028 80.5516858,10.2480475 80.7919214,10.1308594 C81.032157,10.0136713 81.2855724,9.95507812 81.5521753,9.95507812 C82.0355762,9.95507812 82.4135021,10.1140121 82.6859644,10.4318848 C82.9584267,10.7497574 83.0946558,11.2104462 83.0946558,11.8139648 L83.0946558,15 Z M88.0041089,15 L87.177937,15 L87.177937,14.4990234 C87.0490302,14.6074224 86.9377031,14.696777 86.8439527,14.7670898 C86.7502022,14.8374027 86.64034,14.9018552 86.5143628,14.9604492 C86.3971747,15.0161136 86.2755939,15.059326 86.1496167,15.0900879 C86.0236395,15.1208498 85.8771566,15.1362305 85.7101636,15.1362305 C85.4435607,15.1362305 85.196737,15.080567 84.9696851,14.9692383 C84.7426332,14.8579096 84.5500082,14.6953136 84.3918042,14.4814453 C84.2306706,14.2646474 84.1061601,13.997316 84.0182691,13.6794434 C83.930378,13.3615707 83.8864331,12.9960958 83.8864331,12.5830078 C83.8864331,12.1523416 83.9420966,11.7795426 84.0534253,11.4645996 C84.164754,11.1496566 84.3185611,10.8750012 84.5148511,10.640625 C84.6935629,10.4267567 84.9096252,10.2590338 85.1630445,10.1374512 C85.4164637,10.0158685 85.6823302,9.95507812 85.9606519,9.95507812 C86.2067469,9.95507812 86.4206119,9.98217746 86.6022535,10.036377 C86.783895,10.0905764 86.9757876,10.1748041 87.177937,10.2890625 L87.177937,8.16210938 L88.0041089,8.16210938 L88.0041089,15 Z M87.177937,13.8046875 L87.177937,10.9746094 C86.9728579,10.8749995 86.7890218,10.8061525 86.6264234,10.7680664 C86.4638249,10.7299803 86.287313,10.7109375 86.0968824,10.7109375 C85.6720755,10.7109375 85.3395593,10.8698715 85.0993238,11.1877441 C84.8590882,11.5056168 84.7389722,11.9648407 84.7389722,12.5654297 C84.7389722,13.142581 84.8312564,13.584227 85.0158277,13.8903809 C85.2003989,14.1965347 85.4962944,14.3496094 85.903523,14.3496094 C86.1203209,14.3496094 86.3385805,14.3005376 86.5583081,14.2023926 C86.7780358,14.1042476 86.9845767,13.9716805 87.177937,13.8046875 L87.177937,13.8046875 Z" id="we-recommend" fill="#FFFFFF" sketch:type="MSShapeGroup"></path>
            <rect id="Rectangle-1" fill="#C3C3C3" sketch:type="MSShapeGroup" x="0" y="0" width="24.7368421" height="25"></rect>
            <g id="Shape-+-Shape-+-Shape" transform="translate(4.186235, 4.166667)" sketch:type="MSShapeGroup">
                <path d="M14.1354177,16.9036278 C13.3287272,16.7380785 12.717598,16.0206978 12.5220367,14.9783499 C12.4364786,14.524622 12.4487012,2.2800994 12.5342593,1.86929168 C12.7053755,1.07833354 13.1820562,0.422267483 13.7687402,0.158614768 C14.0070806,0.0543799744 14.2026419,0.0175912236 14.5754307,0.0175912236 C15.4126777,0.0114597651 15.9504713,0.330295606 16.3354827,1.07220208 C16.7449393,1.85089731 16.7449393,1.84476585 16.7449393,8.46674099 C16.7449393,14.3713355 16.7327167,14.7944061 16.5249328,15.4627351 C16.1888117,16.5296089 15.2171163,17.1182289 14.1354177,16.9036278 L14.1354177,16.9036278 Z" id="Shape" fill="#195BA8" transform="translate(14.604296, 8.482471) scale(1, -1) translate(-14.604296, -8.482471) "></path>
                <path d="M1.58893584,16.9053019 C1.06947605,16.7581469 0.647796921,16.4515739 0.372788794,16.0162404 C-0.32389846,14.9187093 0.0305564585,13.563657 1.17336801,12.9382482 L1.55837938,12.7297787 L4.0517864,12.7113843 L6.54519342,12.6929899 L6.52685954,10.2281436 L6.50852567,7.7632973 L6.34352079,7.31570083 C6.10518041,6.66576623 5.83628358,6.23043268 5.34738024,5.739916 C4.5651349,4.96122078 3.67288631,4.56880743 2.63396672,4.55041306 C1.6194923,4.53201868 1.19781317,4.39099514 0.672242088,3.894347 C0.244451668,3.4958022 0.0366677502,2.99302261 0.0305564585,2.36761384 C0.0305564585,1.93228029 0.0550016253,1.8280455 0.232229085,1.46628945 C0.476680753,0.963509853 0.910582464,0.552702136 1.39337451,0.37488984 C1.68671651,0.264523588 1.87005526,0.239997754 2.51785218,0.246129212 C3.66677502,0.246129212 4.59569136,0.430072967 5.66516741,0.865406518 C7.87134372,1.76673091 9.66806348,3.70427179 10.4136411,5.98517434 C10.7925412,7.13788853 10.7742073,6.91102457 10.810875,12.1656845 L10.8475428,16.9911423 L6.35574337,16.9850108 C2.97619906,16.9788794 1.79671976,16.960485 1.58893584,16.9053019 L1.58893584,16.9053019 Z" id="Shape" fill="#195BA8" transform="translate(5.431900, 8.618200) scale(1, -1) translate(-5.431900, -8.618200) "></path>
                <path d="M1.92505689,11.0132469 C1.46671001,10.9028806 1.06336476,10.6760166 0.75168888,10.3571808 C0.372788794,9.96476747 0.262785543,9.78082371 0.110003251,9.29643849 C-0.409456544,7.59189304 1.09392122,5.88734759 2.85397323,6.19392051 C4.77291882,6.52501927 5.56127545,8.7936589 4.2717929,10.2652089 C3.70955406,10.9090121 2.76230385,11.2094535 1.92505689,11.0132469 L1.92505689,11.0132469 Z" id="Shape" fill="#F28A20" transform="translate(2.454823, 8.615273) scale(1, -1) translate(-2.454823, -8.615273) "></path>
            </g>
        </g>
    </g>
</svg>