<?xml version="1.0" encoding="UTF-8"?>
<svg width="96px" height="33px" viewBox="0 0 96 33" version="1.1" xmlns="http://www.w3.org/2000/svg" xmlns:xlink="http://www.w3.org/1999/xlink">
    <!-- Generator: Sketch 64 (93537) - https://sketch.com -->
    <title>openjdk_quality_outreach</title>
    <desc>Created with Sketch.</desc>
    <defs>
        <filter x="-13.6%" y="-48.0%" width="127.3%" height="196.0%" filterUnits="objectBoundingBox" id="filter-1">
            <feOffset dx="0" dy="2" in="SourceAlpha" result="shadowOffsetOuter1"></feOffset>
            <feGaussianBlur stdDeviation="2" in="shadowOffsetOuter1" result="shadowBlurOuter1"></feGaussianBlur>
            <feColorMatrix values="0 0 0 0 0   0 0 0 0 0   0 0 0 0 0  0 0 0 0.5 0" type="matrix" in="shadowBlurOuter1" result="shadowMatrixOuter1"></feColorMatrix>
            <feMerge>
                <feMergeNode in="shadowMatrixOuter1"></feMergeNode>
                <feMergeNode in="SourceGraphic"></feMergeNode>
            </feMerge>
        </filter>
    </defs>
    <g id="Page-1" stroke="none" stroke-width="1" fill="none" fill-rule="evenodd">
        <g id="openjdk_quality_outreach" filter="url(#filter-1)" transform="translate(4.000000, 2.000000)">
            <polygon id="Path" fill="#F6F8FA" fill-rule="nonzero" points="0.143 0 63 0 63 25 0.143 25"></polygon>
            <polygon id="Path" fill="#F6F8FA" fill-rule="nonzero" points="63 0 88 0 88 25 63 25"></polygon>
            <g id="Group" transform="translate(1.000000, 2.000000)" font-family="MicrosoftSansSerif, Microsoft Sans Serif" font-weight="normal">
                <text id="Open" fill="#E76F00" font-size="9">
                    <tspan x="10" y="8">Open</tspan>
                </text>
                <text id="JDK" fill="#427191" font-size="9">
                    <tspan x="32" y="8">JDK</tspan>
                </text>
                <text id="Quality-Outreach" fill="#427191" font-size="8">
                    <tspan x="0" y="19">Quality Outreach</tspan>
                </text>
            </g>
            <g id="java_logo" opacity="0.753138951" transform="translate(63.000000, 0.000000)" fill-rule="nonzero">
                <path d="M8.56740508,19 C8.56740508,19 7.32137343,19.5379988 9.45416338,19.7200506 C12.0379785,19.9389042 13.3585365,19.9075182 16.2059183,19.5073959 C16.2059183,19.5073959 16.9545216,19.8559043 18,20.1577579 C11.6169221,22.1889074 3.55383706,20.0401094 8.56740508,19" id="Path" fill="#5382A1"></path>
                <path d="M7.81851666,17 C7.81851666,17 6.37032154,17.7835701 8.58204753,17.9507886 C11.4421919,18.1664684 13.70091,18.1841089 17.6093611,17.6339922 C17.6093611,17.6339922 18.1499527,18.0345975 19,18.2536723 C11.0027791,19.9630015 2.09531367,18.3884722 7.81851666,17" id="Path" fill="#5382A1"></path>
                <path d="M13.5866382,12.2191635 C15.3164838,13.6828589 13.1321382,15 13.1321382,15 C13.1321382,15 17.5245114,13.3335583 15.5072927,11.2467766 C13.6232728,9.30072387 12.1784806,8.33380696 20,5 C20,5 7.72279429,7.25351112 13.5866382,12.2191635" id="Path" fill="#E76F00"></path>
                <path d="M23.3326312,21.2385908 C23.3326312,21.2385908 24.311351,21.8958972 22.2547521,22.4044068 C18.3440707,23.3700277 5.97807869,23.6616147 2.54285809,22.4428796 C1.30798461,22.0050048 3.62372218,21.3973479 4.35216507,21.2698404 C5.11185758,21.1355659 5.54599424,21.1605808 5.54599424,21.1605808 C4.17268957,20.3720411 -3.33048671,22.7089195 1.73475196,23.3781632 C15.5483948,25.2040989 26.9157045,22.5559409 23.3326312,21.2385908" id="Path" fill="#5382A1"></path>
                <path d="M8.94197071,14.003699 C8.94197071,14.003699 2.79179069,14.9847011 6.76403847,15.3409392 C8.44124422,15.4917401 11.7847109,15.4576231 14.8990655,15.2823829 C17.4442884,15.1381971 20,14.8316339 20,14.8316339 C20,14.8316339 19.102523,15.0897473 18.4532203,15.3874902 C12.2078202,16.4905663 0.142865442,15.9774022 3.61621086,14.8490906 C6.55362389,13.8955291 8.94197071,14.003699 8.94197071,14.003699" id="Path" fill="#5382A1"></path>
                <path d="M20.118633,17.8751736 C26.0212832,15.398434 23.29213,13.0183099 21.3872178,13.3389693 C20.9203175,13.4174395 20.7121373,13.4854332 20.7121373,13.4854332 C20.7121373,13.4854332 20.8854654,13.2661825 21.2165185,13.1712788 C24.9850462,12.1014554 27.8832874,16.3265865 20,18 C20,18.0000684 20.0913279,17.9341288 20.118633,17.8751736" id="Path" fill="#5382A1"></path>
                <path d="M16.0693866,0 C16.0693866,0 19.6965243,2.65246143 12.629204,6.7311978 C6.96193053,10.0030461 11.3368891,11.8685664 12.6268517,14 C9.31877034,11.81808 6.89108137,9.89732735 8.51976504,8.10966884 C10.9102888,5.48554584 17.5328496,4.21327503 16.0693866,0" id="Path" fill="#E76F00"></path>
                <path d="M9.67703968,24.9336468 C15.6346857,25.176974 24.7833259,24.798642 25,23 C25,23 24.5835043,23.6818512 20.0763264,24.2233496 C14.9913508,24.8339151 8.71975034,24.7626293 5,24.3713258 C5,24.3712689 5.76148016,24.7734388 9.67703968,24.9336468" id="Path" fill="#5382A1"></path>
            </g>
        </g>
    </g>
</svg>