<?xml version="1.0" encoding="UTF-8"?>
<svg width="98px" height="25px" viewBox="0 0 98 25" version="1.1" xmlns="http://www.w3.org/2000/svg" xmlns:xlink="http://www.w3.org/1999/xlink">
    <!-- Generator: Sketch 64 (93537) - https://sketch.com -->
    <title>rubymine</title>
    <desc>Created with Sketch.</desc>
    <defs>
        <linearGradient x1="67.6849445%" y1="81.3007879%" x2="37.1573693%" y2="27.5933436%" id="linearGradient-1">
            <stop stop-color="#FF1F51" offset="17.2%"></stop>
            <stop stop-color="#FF3648" offset="27.98%"></stop>
            <stop stop-color="#FF593B" offset="46.81%"></stop>
            <stop stop-color="#FF7231" offset="64.64%"></stop>
            <stop stop-color="#FF812B" offset="80.88%"></stop>
            <stop stop-color="#FF8629" offset="94.09%"></stop>
        </linearGradient>
        <linearGradient x1="61.4481319%" y1="39.4306903%" x2="43.5263736%" y2="66.036328%" id="linearGradient-2">
            <stop stop-color="#9039D0" offset="2.150538%"></stop>
            <stop stop-color="#FF1F51" offset="62.9%"></stop>
        </linearGradient>
        <linearGradient x1="8.94221917%" y1="8.01940532%" x2="76.4619665%" y2="97.527856%" id="linearGradient-3">
            <stop stop-color="#9039D0" offset="10.75%"></stop>
            <stop stop-color="#FF1F51" offset="38.71%"></stop>
            <stop stop-color="#FF1F51" offset="62.9%"></stop>
            <stop stop-color="#FF3648" offset="65.99%"></stop>
            <stop stop-color="#FF593B" offset="71.39%"></stop>
            <stop stop-color="#FF7231" offset="76.5%"></stop>
            <stop stop-color="#FF812B" offset="81.16%"></stop>
            <stop stop-color="#FF8629" offset="84.95%"></stop>
        </linearGradient>
    </defs>
    <g id="Page-1" stroke="none" stroke-width="1" fill="none" fill-rule="evenodd">
        <g id="rubymine" fill-rule="nonzero">
            <rect id="Rectangle-1" fill="#5E5E5E" x="25.7006152" y="0" width="71.9617225" height="21.4285714"></rect>
            <path d="M35.7676822,8.64969309 L34.4755758,12.8571429 L33.6811359,12.8571429 L32.4346871,9.6139788 L31.1973697,12.8571429 L30.4074955,12.8571429 L29.1016918,8.64969309 L29.9965783,8.64969309 L30.8960303,11.9079241 L32.1059532,8.64969309 L32.8136441,8.64969309 L34.0555272,11.9079241 L34.9047561,8.64969309 L35.7676822,8.64969309 Z M38.7088144,12.9550781 C37.8961074,12.9550781 37.2652798,12.7661151 36.8163124,12.3881836 C36.367345,12.010252 36.1428648,11.4734967 36.1428648,10.7779018 C36.1428648,10.0923515 36.3604965,9.54680726 36.7957665,9.14125277 C37.2310366,8.73569829 37.8002273,8.5329241 38.5033558,8.5329241 C38.8199158,8.5329241 39.0999456,8.57059114 39.3434533,8.64592637 C39.5869609,8.72126151 39.800027,8.83928494 39.9826578,9 C40.1652886,9.16071506 40.3053034,9.35721146 40.4027065,9.58949494 C40.5001096,9.82177851 40.5488104,10.1061646 40.5488104,10.4426619 L40.5488104,10.8268695 L37.0149224,10.8268695 C37.0149224,11.3165482 37.1640687,11.6907074 37.4623656,11.9493583 C37.7606625,12.2080091 38.1730976,12.3373326 38.699683,12.3373326 C38.8884015,12.3373326 39.0733123,12.3197547 39.2544212,12.2845982 C39.4355301,12.2494418 39.5991343,12.2042414 39.745239,12.1489955 C39.9004751,12.0912386 40.0313585,12.0353658 40.1378932,11.9813756 C40.2444278,11.9273853 40.3326981,11.8765348 40.4027065,11.8288226 L40.4529298,11.8288226 L40.4529298,12.6010045 C40.3524828,12.6336497 40.227687,12.6744556 40.0785385,12.7234235 C39.92939,12.7723914 39.7954628,12.8106862 39.6767527,12.8383091 C39.5093412,12.8759768 39.3579121,12.9048548 39.222461,12.9249442 C39.0870098,12.9450336 38.9157961,12.9550781 38.7088144,12.9550781 L38.7088144,12.9550781 Z M39.7132788,10.2844587 C39.7071911,10.0936095 39.6797969,9.92913017 39.6310953,9.79101566 C39.5823938,9.65290106 39.5123864,9.53613326 39.421071,9.44070874 C39.320624,9.33523946 39.1920235,9.25488309 39.0352654,9.19963731 C38.8785072,9.14439146 38.6844649,9.116769 38.4531327,9.116769 C38.2248442,9.116769 38.0308019,9.14501923 37.8709999,9.20152063 C37.711198,9.25802203 37.5658565,9.34026171 37.4349711,9.44824217 C37.3071296,9.5587338 37.2097279,9.68115171 37.1427633,9.81549943 C37.0757988,9.94984723 37.0331855,10.1061654 37.0149224,10.2844587 L39.7132788,10.2844587 Z M46.9789646,9.41057477 L46.9333071,9.41057477 C46.8693864,9.39550774 46.8016618,9.386091 46.7301314,9.3823242 C46.658601,9.37855749 46.5726137,9.37667409 46.4721668,9.37667409 C46.2408344,9.37667409 46.0110274,9.41810786 45.782739,9.5009766 C45.5544505,9.58384526 45.3383407,9.70689094 45.1344029,9.87011717 L45.1344029,12.8571429 L44.2760425,12.8571429 L44.2760425,8.64969309 L45.1344029,8.64969309 L45.1344029,9.27497211 C45.4479191,9.04645534 45.7211003,8.88511483 45.9539545,8.79094586 C46.1868087,8.69677689 46.4128109,8.64969309 46.6319679,8.64969309 C46.7202394,8.64969309 46.7864421,8.6515764 46.8305779,8.6553432 C46.8747137,8.65910991 46.9241754,8.66476003 46.9789646,8.67229354 L46.9789646,9.41057477 Z M49.7831246,12.9550781 C48.9704176,12.9550781 48.3395898,12.7661151 47.8906225,12.3881836 C47.4416552,12.010252 47.2171749,11.4734967 47.2171749,10.7779018 C47.2171749,10.0923515 47.4348066,9.54680726 47.8700767,9.14125277 C48.3053467,8.73569829 48.8745375,8.5329241 49.577666,8.5329241 C49.894226,8.5329241 50.1742556,8.57059114 50.4177633,8.64592637 C50.6612711,8.72126151 50.874337,8.83928494 51.0569679,9 C51.2395986,9.16071506 51.3796135,9.35721146 51.4770166,9.58949494 C51.5744196,9.82177851 51.6231205,10.1061646 51.6231205,10.4426619 L51.6231205,10.8268695 L48.0892325,10.8268695 C48.0892325,11.3165482 48.2383787,11.6907074 48.5366756,11.9493583 C48.8349726,12.2080091 49.2474076,12.3373326 49.773993,12.3373326 C49.9627115,12.3373326 50.1476224,12.3197547 50.3287312,12.2845982 C50.5098401,12.2494418 50.6734444,12.2042414 50.8195491,12.1489955 C50.9747852,12.0912386 51.1056687,12.0353658 51.2122032,11.9813756 C51.3187379,11.9273853 51.4070081,11.8765348 51.4770166,11.8288226 L51.5272398,11.8288226 L51.5272398,12.6010045 C51.4267928,12.6336497 51.301997,12.6744556 51.1528485,12.7234235 C51.0037001,12.7723914 50.8697729,12.8106862 50.7510629,12.8383091 C50.5836513,12.8759768 50.4322222,12.9048548 50.296771,12.9249442 C50.1613199,12.9450336 49.9901061,12.9550781 49.7831246,12.9550781 L49.7831246,12.9550781 Z M50.7875888,10.2844587 C50.7815011,10.0936095 50.7541069,9.92913017 50.7054054,9.79101566 C50.6567038,9.65290106 50.5866964,9.53613326 50.495381,9.44070874 C50.3949341,9.33523946 50.2663335,9.25488309 50.1095754,9.19963731 C49.9528174,9.14439146 49.7587751,9.116769 49.5274427,9.116769 C49.2991542,9.116769 49.1051119,9.14501923 48.94531,9.20152063 C48.7855081,9.25802203 48.6401665,9.34026171 48.5092811,9.44824217 C48.3814396,9.5587338 48.284038,9.68115171 48.2170734,9.81549943 C48.1501088,9.94984723 48.1074956,10.1061654 48.0892325,10.2844587 L50.7875888,10.2844587 Z M54.4866351,12.9513114 C54.1365927,12.9513114 53.8154718,12.9067387 53.5232625,12.8175921 C53.2310533,12.7284454 52.9799397,12.5934719 52.7699143,12.4126674 C52.5598889,12.231863 52.3970456,12.0039774 52.2813794,11.7290039 C52.1657132,11.4540304 52.107881,11.1307217 52.107881,10.7590681 C52.107881,10.3899256 52.1679961,10.0710114 52.2882281,9.80231589 C52.4084599,9.53362029 52.5690205,9.30761811 52.7699143,9.12430243 C52.9708082,8.94098683 53.2211607,8.79973543 53.5209796,8.70054411 C53.8207985,8.60135271 54.1426804,8.55175781 54.4866351,8.55175781 C54.766669,8.55175781 55.0368062,8.58440254 55.2970552,8.64969309 C55.557304,8.71498354 55.7893938,8.79031766 55.9933315,8.87569757 L55.9933315,9.67047994 L55.9431083,9.67047994 C55.8822314,9.62778994 55.8038535,9.57882283 55.7079724,9.52357697 C55.6120912,9.4683312 55.4956658,9.41183066 55.3586927,9.35407363 C55.2399826,9.3038502 55.0999679,9.25990534 54.9386441,9.22223769 C54.7773201,9.18457011 54.6220863,9.16573663 54.4729379,9.16573663 C54.0285363,9.16573663 53.6716506,9.30447686 53.4022702,9.58196151 C53.1328899,9.85944617 52.9982017,10.2518111 52.9982017,10.7590681 C52.9982017,11.2562804 53.1283242,11.6436231 53.388573,11.9211077 C53.6488218,12.1985924 54.0102731,12.3373326 54.4729379,12.3373326 C54.7529717,12.3373326 55.0193043,12.289621 55.2719435,12.1941964 C55.5245828,12.0987718 55.7483021,11.9757262 55.9431083,11.8250558 L55.9933315,11.8250558 L55.9933315,12.6198381 C55.9081038,12.6524835 55.8015708,12.6920338 55.6737292,12.7384905 C55.5458877,12.7849473 55.4302233,12.8194754 55.3267325,12.8420759 C55.1806278,12.8772323 55.0497444,12.904227 54.9340782,12.9230608 C54.8184121,12.9418947 54.6692659,12.9513114 54.4866351,12.9513114 L54.4866351,12.9513114 Z M60.9388266,10.7553014 C60.9388266,11.4634522 60.7318482,12.0102519 60.3178851,12.3957171 C59.903922,12.7811822 59.3529941,12.9739119 58.6650848,12.9739119 C57.9558686,12.9739119 57.3980921,12.7749044 56.9917386,12.3768834 C56.585385,11.9788624 56.3822114,11.4383404 56.3822114,10.7553014 C56.3822114,10.0521729 56.5914727,9.50600083 57.0100016,9.116769 C57.4285304,8.72753709 57.9802193,8.5329241 58.6650848,8.5329241 C59.3529941,8.5329241 59.903922,8.72690931 60.3178851,9.1148856 C60.7318482,9.50286189 60.9388266,10.0496617 60.9388266,10.7553014 L60.9388266,10.7553014 Z M60.0530718,10.7553014 C60.0530718,10.2103767 59.9328417,9.80545611 59.6923778,9.54052731 C59.4519139,9.2755986 59.1094863,9.14313617 58.6650848,9.14313617 C58.2176394,9.14313617 57.8729289,9.2755986 57.6309431,9.54052731 C57.3889573,9.80545611 57.2679662,10.2103767 57.2679662,10.7553014 C57.2679662,11.2826477 57.3889573,11.6825461 57.6309431,11.9550084 C57.8729289,12.2274706 58.2176394,12.3636998 58.6650848,12.3636998 C59.1064425,12.3636998 59.4481091,12.2299818 59.6900949,11.9625418 C59.9320807,11.6951019 60.0530718,11.2926924 60.0530718,10.7553014 L60.0530718,10.7553014 Z M67.5782138,12.8571429 L67.5782138,10.4238281 C67.5782138,10.2304677 67.5690824,10.0515494 67.5508193,9.88706751 C67.5325563,9.72258566 67.4945088,9.59388994 67.4366756,9.5009766 C67.3757988,9.40052966 67.2890504,9.32645117 67.1764281,9.27873883 C67.0638058,9.23102657 66.9116158,9.20717074 66.7198534,9.20717074 C66.5433103,9.20717074 66.3538338,9.25174346 66.151418,9.34089009 C65.9490022,9.43003671 65.7397409,9.55873243 65.5236277,9.726981 C65.5266716,9.769671 65.5304764,9.82052143 65.5350422,9.879534 C65.5396079,9.93854657 65.5418908,10.0082307 65.5418908,10.0885881 L65.5418908,12.8571429 L64.6835304,12.8571429 L64.6835304,10.4238281 C64.6835304,10.2304677 64.674399,10.0515494 64.6561359,9.88706751 C64.6378728,9.72258566 64.5998254,9.59388994 64.5419922,9.5009766 C64.4811153,9.40052966 64.394367,9.32645117 64.2817446,9.27873883 C64.1691224,9.23102657 64.0169323,9.20717074 63.82517,9.20717074 C63.6394954,9.20717074 63.4446922,9.25488231 63.2407544,9.35030691 C63.0368167,9.44573151 62.8389697,9.56752157 62.6472073,9.71568077 L62.6472073,12.8571429 L61.788847,12.8571429 L61.788847,8.64969309 L62.6472073,8.64969309 L62.6472073,9.116769 C62.8724519,8.93094214 63.0954104,8.78717966 63.3160892,8.68547709 C63.5367681,8.5837746 63.7795112,8.5329241 64.0443258,8.5329241 C64.3456666,8.5329241 64.6127601,8.58942463 64.8456143,8.70242743 C65.0784687,8.81543023 65.25577,9.00125426 65.3775238,9.25990517 C65.6362508,9.02134371 65.8888862,8.84054194 66.1354378,8.71749446 C66.3819894,8.59444697 66.6498438,8.5329241 66.9390092,8.5329241 C67.1581662,8.5329241 67.3575352,8.56117438 67.5371221,8.6176758 C67.716709,8.6741772 67.8734647,8.76520586 68.007394,8.89076451 C68.1443671,9.01883434 68.2501392,9.17829146 68.3247135,9.36914066 C68.3992877,9.55998977 68.4365742,9.79980326 68.4365742,10.0885881 L68.4365742,12.8571429 L67.5782138,12.8571429 Z M75.4001294,12.8571429 L75.4001294,10.4238281 C75.4001294,10.2304677 75.390998,10.0515494 75.372735,9.88706751 C75.3544718,9.72258566 75.3164243,9.59388994 75.2585913,9.5009766 C75.1977143,9.40052966 75.110966,9.32645117 74.9983437,9.27873883 C74.8857214,9.23102657 74.7335313,9.20717074 74.541769,9.20717074 C74.3652259,9.20717074 74.1757493,9.25174346 73.9733335,9.34089009 C73.7709177,9.43003671 73.5616564,9.55873243 73.3455434,9.726981 C73.3485872,9.769671 73.352392,9.82052143 73.3569577,9.879534 C73.3615235,9.93854657 73.3638063,10.0082307 73.3638063,10.0885881 L73.3638063,12.8571429 L72.5054459,12.8571429 L72.5054459,10.4238281 C72.5054459,10.2304677 72.4963146,10.0515494 72.4780514,9.88706751 C72.4597884,9.72258566 72.4217409,9.59388994 72.3639078,9.5009766 C72.3030309,9.40052966 72.2162826,9.32645117 72.1036603,9.27873883 C71.9910379,9.23102657 71.8388479,9.20717074 71.6470856,9.20717074 C71.4614109,9.20717074 71.2666077,9.25488231 71.06267,9.35030691 C70.8587323,9.44573151 70.6608852,9.56752157 70.4691229,9.71568077 L70.4691229,12.8571429 L69.6107625,12.8571429 L69.6107625,8.64969309 L70.4691229,8.64969309 L70.4691229,9.116769 C70.6943676,8.93094214 70.9173259,8.78717966 71.1380048,8.68547709 C71.3586836,8.5837746 71.6014268,8.5329241 71.8662415,8.5329241 C72.1675822,8.5329241 72.4346757,8.58942463 72.66753,8.70242743 C72.9003842,8.81543023 73.0776856,9.00125426 73.1994395,9.25990517 C73.4581664,9.02134371 73.7108019,8.84054194 73.9573535,8.71749446 C74.2039049,8.59444697 74.4717595,8.5329241 74.7609249,8.5329241 C74.9800818,8.5329241 75.1794507,8.56117438 75.3590377,8.6176758 C75.5386246,8.6741772 75.6953804,8.76520586 75.8293096,8.89076451 C75.9662827,9.01883434 76.0720548,9.17829146 76.146629,9.36914066 C76.2212032,9.55998977 76.2584898,9.79980326 76.2584898,10.0885881 L76.2584898,12.8571429 L75.4001294,12.8571429 Z M79.6470652,12.9550781 C78.8343583,12.9550781 78.2035306,12.7661151 77.7545632,12.3881836 C77.3055959,12.010252 77.0811156,11.4734967 77.0811156,10.7779018 C77.0811156,10.0923515 77.2987473,9.54680726 77.7340174,9.14125277 C78.1692874,8.73569829 78.7384781,8.5329241 79.4416066,8.5329241 C79.7581666,8.5329241 80.0381964,8.57059114 80.2817041,8.64592637 C80.5252117,8.72126151 80.7382778,8.83928494 80.9209086,9 C81.1035394,9.16071506 81.2435543,9.35721146 81.3409573,9.58949494 C81.4383604,9.82177851 81.4870612,10.1061646 81.4870612,10.4426619 L81.4870612,10.8268695 L77.9531732,10.8268695 C77.9531732,11.3165482 78.1023195,11.6907074 78.4006164,11.9493583 C78.6989134,12.2080091 79.1113484,12.3373326 79.6379338,12.3373326 C79.8266523,12.3373326 80.0115631,12.3197547 80.192672,12.2845982 C80.3737809,12.2494418 80.5373851,12.2042414 80.6834898,12.1489955 C80.8387259,12.0912386 80.9696094,12.0353658 81.076144,11.9813756 C81.1826786,11.9273853 81.2709489,11.8765348 81.3409573,11.8288226 L81.3911806,11.8288226 L81.3911806,12.6010045 C81.2907336,12.6336497 81.1659378,12.6744556 81.0167893,12.7234235 C80.8676408,12.7723914 80.7337136,12.8106862 80.6150036,12.8383091 C80.447592,12.8759768 80.2961629,12.9048548 80.1607118,12.9249442 C80.0252606,12.9450336 79.8540469,12.9550781 79.6470652,12.9550781 L79.6470652,12.9550781 Z M80.6515296,10.2844587 C80.6454419,10.0936095 80.6180477,9.92913017 80.5693461,9.79101566 C80.5206446,9.65290106 80.4506372,9.53613326 80.3593218,9.44070874 C80.2588748,9.33523946 80.1302743,9.25488309 79.9735162,9.19963731 C79.8167581,9.14439146 79.6227157,9.116769 79.3913835,9.116769 C79.163095,9.116769 78.9690527,9.14501923 78.8092507,9.20152063 C78.6494488,9.25802203 78.5041073,9.34026171 78.3732219,9.44824217 C78.2453804,9.5587338 78.1479788,9.68115171 78.0810141,9.81549943 C78.0140496,9.94984723 77.9714363,10.1061654 77.9531732,10.2844587 L80.6515296,10.2844587 Z M86.3321099,12.8571429 L85.4737495,12.8571429 L85.4737495,10.4614955 C85.4737495,10.2681352 85.4623353,10.0879612 85.4395064,9.9209682 C85.4166776,9.75397517 85.3733034,9.6202572 85.3093826,9.51981026 C85.2393741,9.41434097 85.1419726,9.335868 85.0171749,9.28438894 C84.8923771,9.23290989 84.7219244,9.20717074 84.5058112,9.20717074 C84.2927419,9.20717074 84.0728273,9.25425454 83.8460608,9.34842351 C83.6192942,9.44259257 83.3978578,9.5650104 83.1817446,9.71568077 L83.1817446,12.8571429 L82.3233843,12.8571429 L82.3233843,8.64969309 L83.1817446,8.64969309 L83.1817446,9.116769 C83.4374277,8.92843097 83.6900632,8.78404071 83.9396586,8.68359377 C84.189254,8.58314683 84.4525428,8.5329241 84.7295328,8.5329241 C85.2317675,8.5329241 85.6244178,8.66915323 85.9074955,8.94161554 C86.1905732,9.21407777 86.3321099,9.60895389 86.3321099,10.1262555 L86.3321099,12.8571429 Z M91.4328404,12.8571429 L90.57448,12.8571429 L90.57448,12.4277343 C90.4405509,12.5206478 90.3248863,12.5972374 90.2274833,12.6575055 C90.1300802,12.7177737 90.0159377,12.7730187 89.8850523,12.8232422 C89.7632984,12.8709545 89.6369807,12.9079937 89.5060953,12.9343611 C89.3752099,12.9607284 89.2230198,12.9739119 89.0495206,12.9739119 C88.7725306,12.9739119 88.5160904,12.9262003 88.2801923,12.8307757 C88.0442942,12.7353511 87.8441644,12.5959831 87.6797966,12.4126674 C87.512385,12.2268406 87.3830235,11.9976994 87.2917082,11.7252372 C87.2003927,11.4527749 87.1547357,11.1395107 87.1547357,10.7854353 C87.1547357,10.4162928 87.2125679,10.0967508 87.3282341,9.82679966 C87.4439003,9.55684851 87.6036998,9.3214296 87.8076375,9.12053571 C87.9933121,8.93722003 88.2177924,8.79345754 88.4810852,8.68924389 C88.7443779,8.58503014 89.0206028,8.5329241 89.3097682,8.5329241 C89.5654513,8.5329241 89.7876487,8.55615211 89.9763673,8.60260886 C90.1650857,8.64906549 90.3644546,8.72126066 90.57448,8.81919643 L90.57448,6.99609375 L91.4328404,6.99609375 L91.4328404,12.8571429 Z M90.57448,11.8325893 L90.57448,9.40680806 C90.3614108,9.32142814 90.1704123,9.26241643 90.0014789,9.2297712 C89.8325454,9.19712597 89.6491564,9.18080357 89.4513064,9.18080357 C89.0099486,9.18080357 88.6644772,9.31703271 88.4148819,9.58949494 C88.1652864,9.86195726 88.0404906,10.2555777 88.0404906,10.7703683 C88.0404906,11.2650694 88.1363703,11.6436231 88.3281327,11.9060408 C88.519895,12.1684583 88.8273189,12.2996652 89.2504135,12.2996652 C89.4756581,12.2996652 89.7024213,12.2576037 89.9307097,12.1734794 C90.1589982,12.0893551 90.3735862,11.9757261 90.57448,11.8325893 L90.57448,11.8325893 Z" id="we-recommend" fill="#FFFFFF"></path>
            <rect id="Rectangle-1" fill="#C3C3C3" x="0" y="0" width="25.7006152" height="21.4285714"></rect>
            <g id="logo">
                <g id="Group">
                    <polygon id="Path" fill="url(#linearGradient-1)" points="21.8796992 0 14.3609023 2.57142857 8.42105263 0 2.59398496 13.8928571 9.28571429 11.3571429 9.17293233 18.3928571 23.4962406 18.6428571 26.3157895 4.89285714"></polygon>
                    <polygon id="Path" fill="url(#linearGradient-2)" points="19.0977444 8.10714286 9.62406015 2.21428571 1.9924812 6.67857143 18.7218045 12.8214286"></polygon>
                    <polygon id="Path" fill="url(#linearGradient-3)" points="10.9398496 24.3571429 20.7894737 23.1071429 17.6691729 17.3928571 19.7368421 15 19.962406 13.5357143 9.62406015 2.17857143 0 4.42857143 0 17.5357143 5.56390977 25 10.9398496 24.3571429 10.9398496 24.3571429 10.9398496 24.3571429"></polygon>
                </g>
                <g id="Group" transform="translate(5.263158, 5.000000)">
                    <rect id="Rectangle" fill="#000000" x="0.14354067" y="0.136363636" width="15.5023923" height="14.7272727"></rect>
                    <rect id="Rectangle" fill="#FFFFFF" x="1.61483254" y="12.1022727" width="5.81339713" height="1"></rect>
                    <polygon id="Path" fill="#FFFFFF" points="7.75119617 2.04545455 9.29425837 2.04545455 10.9808612 4.63636364 12.6674641 2.04545455 14.2105263 2.04545455 14.2105263 8.14772727 12.7751196 8.14772727 12.7751196 4.15909091 10.9808612 6.78409091 10.9449761 6.78409091 9.1507177 4.19318182 9.1507177 8.14772727 7.75119617 8.14772727"></polygon>
                    <path d="M1.57894737,2.04545455 L4.5215311,2.04545455 C5.34688995,2.04545455 5.9569378,2.25 6.38755981,2.65909091 C6.74641148,3 6.92583732,3.47727273 6.92583732,4.05681818 L6.92583732,4.09090909 C6.92583732,4.60227273 6.78229665,4.97727273 6.53110048,5.28409091 C6.27990431,5.59090909 5.9569378,5.82954545 5.52631579,5.96590909 L7.10526316,8.14772727 L5.45454545,8.14772727 L4.12679426,6.27272727 L2.94258373,6.27272727 L2.94258373,8.14772727 L1.5430622,8.14772727 L1.5430622,2.04545455 L1.57894737,2.04545455 Z M4.44976077,5.01136364 C4.80861244,5.01136364 5.05980861,4.94318182 5.23923445,4.77272727 C5.41866029,4.60227273 5.52631579,4.39772727 5.52631579,4.15909091 L5.52631579,4.125 C5.52631579,3.81818182 5.41866029,3.61363636 5.23923445,3.47727273 C5.05980861,3.34090909 4.77272727,3.27272727 4.4138756,3.27272727 L3.01435407,3.27272727 L3.01435407,5.01136364 L4.44976077,5.01136364 L4.44976077,5.01136364 Z" id="Shape" fill="#FFFFFF"></path>
                </g>
            </g>
        </g>
    </g>
</svg>
